<?xml version="1.0" standalone="no"?>
<!DOCTYPE svg PUBLIC "-//W3C//DTD SVG 20010904//EN"
 "http://www.w3.org/TR/2001/REC-SVG-20010904/DTD/svg10.dtd">
<svg version="1.0" xmlns="http://www.w3.org/2000/svg"
 width="680.000000pt" height="591.000000pt" viewBox="0 0 680.000000 591.000000"
 preserveAspectRatio="xMidYMid meet">
<metadata>
Created by potrace 1.16, written by Peter Selinger 2001-2019
</metadata>
<g transform="translate(0.000000,591.000000) scale(0.100000,-0.100000)"
fill="#000000" stroke="none">
<path d="M1554 5872 c-75 -49 -139 -119 -207 -224 -52 -80 -1210 -2155 -1277
-2288 -38 -76 -70 -164 -70 -194 0 -12 12 12 25 52 14 40 39 101 56 134 39 78
1192 2149 1250 2247 84 140 173 231 284 290 29 15 34 21 19 21 -12 0 -47 -17
-80 -38z"/>
<path d="M3435 5900 c-710 -3 -1301 -9 -1314 -14 -15 -6 -25 -5 -30 3 -5 8
-18 10 -37 5 l-29 -8 40 -9 c22 -4 61 -8 87 -7 47 1 88 -13 88 -29 0 -4 -23
-11 -52 -14 -28 -4 -56 -11 -61 -16 -7 -7 2 -8 26 -4 46 7 46 1 5 -26 -32 -20
-32 -21 -8 -21 l25 -1 -25 -14 c-23 -13 -23 -14 -5 -15 16 -1 14 -4 -8 -12
-21 -7 -26 -14 -22 -29 4 -12 1 -21 -9 -25 -9 -3 -16 -12 -16 -20 0 -8 -12
-33 -27 -57 -15 -23 -38 -63 -51 -89 -18 -36 -29 -48 -47 -48 -20 0 -78 -95
-431 -707 -224 -390 -523 -908 -664 -1153 -141 -245 -282 -488 -312 -541 l-56
-96 412 -714 c1063 -1846 1029 -1789 1054 -1789 12 0 22 -5 22 -11 0 -6 11
-32 24 -58 12 -26 29 -65 35 -86 7 -22 15 -47 18 -55 3 -8 8 -26 10 -40 2 -14
11 -31 20 -37 15 -12 15 -13 -2 -13 -10 0 -15 -3 -11 -8 7 -7 11 -8 39 -11 8
-1 7 -4 -3 -11 -8 -5 -24 -8 -35 -6 -11 2 -14 1 -7 -1 6 -3 12 -9 12 -14 0 -5
9 -9 20 -9 11 0 20 -4 20 -10 0 -19 -49 -41 -98 -43 -27 -1 -45 -5 -39 -9 6
-4 32 -5 57 -2 25 2 40 2 34 -1 -6 -3 -47 -9 -90 -14 -45 -5 620 -9 1556 -10
l1635 -1 62 40 c72 47 133 112 196 208 63 97 1230 2195 1296 2332 l56 115 3
242 3 241 -31 80 c-17 44 -249 473 -516 954 -865 1554 -831 1497 -930 1587
-109 100 -109 100 -370 103 -126 2 -809 1 -1519 -2z m438 -17 c-298 -2 -788
-2 -1090 0 -301 1 -58 2 542 2 600 0 846 -1 548 -2z m1466 -1802 l651 -1129
-446 -773 c-246 -426 -537 -929 -646 -1119 -110 -190 -202 -348 -207 -353 -10
-10 -2602 -10 -2611 0 -11 12 -1288 2226 -1292 2239 -2 7 289 518 647 1138
l650 1126 1301 0 1301 0 652 -1129z m-1481 -4068 c-296 -2 -780 -2 -1075 0
-296 1 -54 2 537 2 591 0 833 -1 538 -2z"/>
<path d="M1466 4073 c-352 -610 -641 -1111 -643 -1115 -2 -4 231 -414 518
-910 287 -497 574 -995 639 -1108 l118 -205 1285 -3 1285 -2 49 82 c27 46 316
546 643 1112 466 807 591 1032 584 1045 -6 9 -295 510 -643 1114 l-633 1097
-1282 0 -1282 0 -638 -1107z m2974 -273 c413 -37 672 -131 699 -251 12 -53 -4
-92 -58 -142 -53 -50 -129 -91 -236 -129 -129 -46 -132 -45 -70 15 47 45 55
59 55 89 0 74 -81 126 -265 173 -218 56 -289 60 -935 59 -642 0 -934 -12
-1450 -60 -270 -24 -662 -71 -830 -98 -47 -8 -86 -12 -88 -11 -10 9 356 101
588 149 474 99 976 159 1755 209 127 8 732 6 835 -3z m-2980 -675 l0 -125 30
0 30 0 0 125 0 125 105 0 105 0 0 -350 0 -350 -105 0 -105 0 0 145 0 145 -30
0 -30 0 0 -145 0 -145 -110 0 -110 0 0 350 0 350 110 0 110 0 0 -125z m2040
80 l0 -45 -105 0 -105 0 0 45 0 45 105 0 105 0 0 -45z m1130 -305 l0 -350
-105 0 -105 0 0 350 0 350 105 0 105 0 0 -350z m-840 255 c0 -43 1 -45 30 -45
29 0 30 -2 30 -44 0 -41 -2 -45 -27 -48 l-28 -3 -3 -172 c-2 -146 0 -173 13
-187 9 -9 25 -16 36 -16 16 0 19 -7 19 -46 l0 -46 -110 4 c-104 3 -111 4 -137
31 l-28 27 -4 205 c-3 193 -4 205 -22 205 -16 0 -19 7 -19 45 0 38 3 45 20 45
17 0 20 7 20 45 l0 45 105 0 105 0 0 -45z m-1636 -37 c54 -17 102 -65 116
-118 8 -29 11 -97 9 -191 -4 -138 -5 -148 -31 -186 -41 -63 -83 -78 -213 -78
-124 0 -161 14 -202 73 -42 63 -44 342 -3 422 44 87 183 120 324 78z m462 11
c63 -11 118 -40 134 -68 5 -10 12 -41 16 -69 l7 -52 -96 0 -96 0 -3 43 c-3 37
-6 42 -28 42 -21 0 -26 -5 -28 -33 -2 -18 3 -40 10 -49 7 -9 53 -35 103 -58
116 -54 137 -77 143 -154 9 -129 -41 -182 -184 -189 -154 -8 -234 29 -253 118
-20 94 -24 90 84 90 l95 0 0 -44 c0 -50 21 -76 48 -59 11 7 17 24 17 49 l0 39
-98 50 c-54 28 -110 63 -125 78 -25 25 -27 34 -27 107 0 76 1 81 32 111 23 23
48 36 90 45 75 16 87 16 159 3z m1639 -18 c22 -10 48 -27 58 -38 27 -31 37
-119 37 -330 l0 -193 -105 0 c-86 0 -105 3 -105 15 0 12 -6 11 -32 -5 -40 -24
-113 -26 -164 -5 -44 18 -64 63 -64 144 0 105 22 130 150 172 99 32 110 42
110 93 0 46 -19 72 -45 62 -11 -4 -15 -21 -15 -66 l0 -60 -100 0 -100 0 0 38
c0 108 52 169 163 192 58 12 163 3 212 -19z m-1281 10 c4 -5 17 -91 31 -192
13 -100 26 -183 28 -185 2 -2 12 80 21 183 10 104 20 191 23 196 2 4 44 7 94
7 49 0 89 -3 89 -7 0 -5 -21 -135 -46 -290 l-47 -283 -137 0 -137 0 -50 283
c-28 155 -49 285 -46 290 6 10 171 9 177 -2z m526 -281 l0 -290 -105 0 -105 0
0 290 0 290 105 0 105 0 0 -290z m1940 49 c55 -12 70 -29 70 -78 0 -30 -1 -31
-50 -31 -47 0 -50 2 -50 25 0 16 -6 25 -15 25 -9 0 -15 -9 -15 -25 0 -19 9
-29 39 -44 21 -11 52 -32 70 -46 27 -23 31 -33 31 -77 0 -27 -4 -58 -10 -68
-20 -38 -113 -52 -175 -26 -40 17 -57 46 -53 89 3 31 5 32 50 35 l47 3 3 -38
c4 -46 31 -54 36 -11 3 25 -4 33 -62 69 -68 42 -80 61 -78 118 2 42 27 70 73
81 19 4 35 8 36 9 1 1 25 -4 53 -10z m-480 -65 c0 -48 3 -65 13 -62 7 3 13 28
15 66 l3 62 54 0 55 0 0 -175 0 -175 -55 0 -55 0 0 70 c0 56 -3 70 -15 70 -12
0 -15 -14 -15 -70 l0 -70 -55 0 -55 0 0 175 0 175 55 0 55 0 0 -66z m290 -109
l0 -175 -55 0 -55 0 0 175 0 175 55 0 55 0 0 -175z"/>
<path d="M2021 3011 c-7 -11 -11 -85 -11 -178 0 -168 8 -203 44 -190 15 6 16
27 14 194 -3 167 -5 188 -20 191 -9 2 -21 -6 -27 -17z"/>
<path d="M0 2752 c0 -58 90 -233 496 -964 900 -1617 877 -1579 966 -1665 55
-53 146 -113 173 -113 13 0 5 8 -24 23 -127 68 -207 161 -339 392 -104 184
-1093 1962 -1162 2089 -29 54 -66 135 -82 180 -15 45 -28 71 -28 58z"/>
</g>
</svg>
