<?xml version="1.0" standalone="no"?>
<!DOCTYPE svg PUBLIC "-//W3C//DTD SVG 20010904//EN"
 "http://www.w3.org/TR/2001/REC-SVG-20010904/DTD/svg10.dtd">
<svg version="1.0" xmlns="http://www.w3.org/2000/svg"
 width="2158.000000pt" height="771.000000pt" viewBox="0 0 2158.000000 771.000000"
 preserveAspectRatio="xMidYMid meet">
<metadata>
Created by potrace 1.16, written by Peter Selinger 2001-2019
</metadata>
<g transform="translate(0.000000,771.000000) scale(0.100000,-0.100000)"
fill="#000000" stroke="none">
<path d="M13180 7703 c-1069 -32 -1915 -80 -3320 -189 -3737 -287 -6747 -786
-9535 -1581 -278 -79 -349 -102 -318 -103 7 0 120 18 250 39 480 79 1157 175
1878 265 2572 322 5363 528 8185 606 1607 44 3810 39 4390 -10 1484 -126 2609
-382 3103 -707 111 -73 230 -196 269 -279 65 -137 47 -286 -53 -440 -84 -129
-305 -335 -499 -465 -14 -9 -23 -19 -20 -22 8 -7 297 75 512 146 526 175 1011
411 1273 621 196 158 321 324 371 492 38 127 17 309 -48 435 -85 164 -302 343
-593 491 -790 402 -2102 633 -3955 698 -244 9 -1638 11 -1890 3z"/>
<path d="M20793 3080 c-96 -12 -216 -53 -280 -95 -96 -64 -137 -142 -154 -294
-19 -177 12 -322 92 -422 38 -48 96 -88 304 -209 286 -166 299 -178 311 -298
14 -130 -20 -202 -96 -202 -22 0 -48 8 -61 19 -23 19 -24 25 -27 185 l-4 166
-255 0 -256 0 6 -152 c6 -148 22 -239 52 -298 43 -83 190 -172 340 -207 117
-27 360 -24 470 6 185 49 296 133 329 249 21 76 23 362 2 439 -43 163 -142
251 -482 430 -194 101 -214 126 -214 253 0 66 2 74 29 101 32 31 75 38 105 16
23 -17 35 -76 36 -174 l0 -83 250 0 250 0 0 109 c0 128 -12 200 -43 261 -42
82 -164 153 -320 186 -89 18 -289 26 -384 14z"/>
<path d="M18200 2170 l0 -880 275 0 275 0 0 365 0 365 75 0 75 0 0 -365 0
-365 270 0 270 0 0 880 0 880 -270 0 -270 0 0 -315 0 -315 -75 0 -75 0 0 315
0 315 -275 0 -275 0 0 -880z"/>
<path d="M19650 2170 l0 -880 270 0 270 0 0 880 0 880 -270 0 -270 0 0 -880z"/>
<path d="M17420 2215 l0 -155 240 0 240 0 0 155 0 155 -240 0 -240 0 0 -155z"/>
<path d="M16080 464 l0 -286 163 4 c154 3 165 5 219 31 109 54 166 156 155
283 -6 74 -44 152 -94 190 -67 51 -128 64 -293 64 l-150 0 0 -286z m308 191
c159 -67 164 -305 7 -376 -29 -13 -64 -19 -127 -19 l-88 0 0 205 0 205 85 0
c55 0 99 -6 123 -15z"/>
<path d="M18850 489 c0 -153 4 -268 10 -279 15 -29 73 -43 140 -35 33 4 62 10
64 14 2 3 2 19 -1 35 -5 27 -8 28 -45 23 -31 -4 -44 -1 -59 14 -18 18 -19 36
-19 254 l0 235 -45 0 -45 0 0 -261z"/>
<path d="M19330 738 c0 -7 44 -136 97 -285 l98 -273 35 0 35 0 72 188 c40 103
74 196 76 207 l4 20 7 -20 c4 -11 40 -104 79 -207 l72 -187 35 -1 35 0 95 271
c52 149 97 278 98 286 3 11 -7 13 -49 11 l-53 -3 -59 -190 c-33 -104 -62 -197
-65 -205 -3 -9 -8 -1 -13 20 -4 19 -39 112 -77 205 -66 161 -71 170 -98 173
-29 3 -30 0 -101 -180 -40 -101 -73 -191 -73 -200 0 -9 -4 -20 -10 -23 -6 -3
-10 4 -10 17 0 13 -29 104 -63 203 l-62 180 -52 3 c-38 2 -53 -1 -53 -10z"/>
<path d="M1577 720 c-145 -37 -215 -143 -205 -311 8 -129 73 -219 181 -251 70
-20 194 -14 254 12 55 23 117 82 134 128 34 88 31 221 -6 293 -22 41 -75 90
-122 111 -49 22 -181 32 -236 18z m156 -84 c47 -17 74 -41 97 -86 26 -52 33
-112 20 -175 -20 -96 -83 -148 -180 -148 -119 0 -190 81 -190 215 0 68 23 130
58 161 26 24 88 46 127 46 17 0 47 -6 68 -13z"/>
<path d="M15385 717 c-62 -21 -97 -42 -136 -84 -49 -50 -70 -94 -76 -158 -22
-214 226 -364 458 -276 185 71 244 281 119 424 -61 69 -133 100 -239 104 -52
2 -102 -2 -126 -10z m210 -64 c97 -33 176 -145 160 -226 -24 -114 -134 -193
-267 -191 -161 1 -287 136 -249 266 16 54 92 130 152 151 59 21 144 21 204 0z"/>
<path d="M15411 598 c-107 -57 -108 -206 -1 -261 27 -14 52 -17 107 -15 79 4
88 7 79 36 -6 18 -13 19 -66 15 -58 -6 -60 -5 -95 30 -25 25 -35 44 -35 67 0
23 10 42 35 67 35 35 37 36 95 30 53 -4 60 -3 66 15 9 28 1 32 -74 36 -56 3
-74 0 -111 -20z"/>
<path d="M90 450 c0 -269 0 -269 23 -282 15 -9 64 -13 152 -13 145 0 186 13
238 75 66 78 62 237 -7 306 -58 58 -177 72 -259 30 l-47 -23 0 88 0 89 -50 0
-50 0 0 -270z m290 55 c42 -22 64 -69 64 -138 -1 -94 -58 -147 -159 -147 -97
0 -95 -2 -95 114 0 90 3 104 23 128 45 55 111 72 167 43z"/>
<path d="M2680 435 l0 -285 45 0 45 0 0 141 0 141 33 33 c41 41 99 58 150 44
62 -17 67 -34 67 -206 l0 -153 51 0 51 0 -4 173 c-4 242 -18 262 -178 262 -78
0 -91 -3 -128 -28 l-42 -27 0 95 0 95 -45 0 -45 0 0 -285z"/>
<path d="M3840 462 c0 -286 1 -291 65 -312 38 -12 141 -4 151 12 3 5 3 20 0
33 -5 21 -13 24 -59 27 l-52 3 -3 248 -2 247 -50 0 -50 0 0 -258z"/>
<path d="M17975 701 c-27 -5 -30 -10 -33 -49 -3 -42 -3 -42 -43 -42 -38 0 -39
-1 -39 -35 0 -34 1 -35 39 -35 l40 0 3 -155 c3 -154 3 -155 31 -182 25 -26 33
-28 105 -27 42 1 89 6 104 12 25 10 26 14 17 42 -10 29 -13 30 -48 23 -102
-20 -111 -7 -111 159 l0 128 70 0 70 0 0 35 0 35 -70 0 -70 0 0 50 c0 54 -1
55 -65 41z"/>
<path d="M17169 606 c-120 -32 -178 -141 -149 -279 22 -106 71 -141 200 -142
64 0 93 5 119 19 l34 18 -6 -43 c-4 -27 -14 -50 -27 -61 -31 -25 -106 -33
-170 -19 -83 19 -83 19 -94 -17 -12 -41 -3 -48 72 -58 79 -10 192 0 235 21 20
9 47 32 60 49 21 30 22 41 25 267 l3 237 -64 11 c-81 14 -179 13 -238 -3z
m164 -62 l37 -7 0 -101 c0 -128 -14 -155 -92 -176 -56 -16 -114 2 -138 43 -25
40 -26 126 -3 174 27 58 99 82 196 67z"/>
<path d="M18400 610 c-68 -11 -110 -26 -110 -40 0 -9 16 -46 24 -57 1 -1 24 4
51 12 26 8 78 15 115 15 77 0 100 -16 100 -68 l0 -32 -83 0 c-145 0 -224 -39
-242 -120 -9 -43 21 -101 65 -122 67 -34 200 -19 252 29 17 15 19 14 29 -15 9
-27 16 -32 42 -32 l32 0 0 178 c0 120 -4 184 -12 198 -28 48 -146 73 -263 54z
m158 -236 c16 -5 22 -14 22 -33 0 -69 -135 -119 -198 -75 -36 25 -27 74 18 96
35 18 114 23 158 12z"/>
<path d="M20345 614 c-16 -2 -54 -9 -84 -15 -53 -11 -53 -11 -47 -42 9 -45 16
-48 70 -32 27 8 78 15 113 15 74 0 103 -20 103 -72 l0 -33 -84 3 c-108 4 -160
-10 -208 -58 -31 -31 -38 -45 -38 -78 0 -50 35 -95 86 -112 60 -20 165 -9 212
22 l40 27 12 -30 c10 -23 19 -29 44 -29 l31 0 -1 174 c-1 192 -6 211 -63 240
-30 16 -135 27 -186 20z m133 -240 c45 -13 17 -85 -44 -110 -88 -37 -186 6
-154 67 22 40 125 62 198 43z"/>
<path d="M20913 614 c-12 -3 -33 -16 -48 -30 -32 -29 -33 -29 -37 -1 -2 18
-10 23 -40 25 l-38 3 0 -215 0 -216 50 0 50 0 0 153 c0 152 0 154 26 178 22
20 35 24 85 23 l59 -1 6 34 c4 19 4 37 1 40 -8 8 -87 12 -114 7z"/>
<path d="M21216 606 c-96 -36 -131 -92 -131 -211 0 -96 20 -145 75 -181 55
-36 146 -51 230 -36 116 20 138 37 102 81 -17 22 -18 22 -57 5 -51 -22 -151
-22 -192 -1 -30 16 -63 69 -63 101 0 14 21 16 176 16 l176 0 -4 70 c-4 78 -23
112 -78 144 -44 26 -178 33 -234 12z m169 -71 c31 -15 55 -50 55 -80 0 -12
-23 -15 -131 -15 l-130 0 6 23 c22 71 123 108 200 72z"/>
<path d="M16770 395 l0 -215 45 0 45 0 0 215 0 215 -45 0 -45 0 0 -215z"/>
<path d="M17650 395 l0 -215 45 0 45 0 0 215 0 215 -45 0 -45 0 0 -215z"/>
<path d="M2240 574 c-19 -8 -42 -22 -51 -30 -15 -13 -17 -12 -23 11 -5 21 -12
25 -41 25 l-35 0 0 -290 0 -290 50 0 50 0 0 79 0 79 43 -10 c23 -5 66 -7 96
-4 144 17 222 102 221 241 -2 135 -73 205 -210 204 -36 0 -81 -7 -100 -15z
m135 -68 c82 -35 96 -183 24 -252 -25 -24 -40 -29 -98 -32 -106 -6 -111 -1
-111 119 0 111 7 131 53 159 38 24 85 25 132 6z"/>
<path d="M3390 579 c-92 -28 -140 -100 -140 -214 0 -129 54 -194 177 -216 91
-16 239 11 250 46 1 6 -6 21 -16 34 -18 24 -19 24 -54 8 -43 -21 -145 -22
-192 -3 -35 15 -65 59 -65 95 0 20 7 21 173 23 l172 3 -1 68 c-1 76 -18 108
-74 141 -39 23 -174 32 -230 15z m185 -90 c12 -13 25 -36 29 -51 l6 -28 -130
0 c-84 0 -130 4 -130 10 0 23 29 66 52 77 41 20 52 23 101 19 35 -2 55 -10 72
-27z"/>
<path d="M4560 584 c-82 -14 -130 -27 -130 -34 0 -7 8 -28 25 -67 1 -1 23 5
50 13 55 16 148 22 182 10 23 -7 42 -49 35 -78 -3 -16 -16 -18 -91 -18 -155 0
-231 -45 -231 -136 0 -57 21 -88 71 -108 74 -30 217 -10 243 33 12 19 24 12
31 -19 6 -27 10 -30 46 -30 38 0 40 2 32 23 -4 12 -7 88 -5 169 3 166 -5 196
-59 224 -31 15 -150 27 -199 18z m158 -257 c8 -40 -8 -68 -51 -87 -94 -43
-184 -9 -162 61 11 32 61 49 140 46 59 -2 70 -5 73 -20z"/>
<path d="M590 576 c0 -3 49 -98 109 -211 66 -126 107 -215 104 -226 -10 -37
-50 -69 -87 -69 -38 0 -40 -2 -50 -42 l-6 -28 61 0 c109 0 132 31 278 377 45
106 81 195 81 198 0 3 -22 5 -48 5 l-49 0 -50 -132 c-28 -73 -56 -150 -63
-172 l-12 -38 -23 56 c-12 30 -47 107 -76 170 l-54 115 -57 1 c-32 0 -58 -2
-58 -4z"/>
<path d="M4170 365 l0 -215 45 0 45 0 0 215 0 215 -45 0 -45 0 0 -215z"/>
</g>
</svg>
